# This file uses centimeters as units for non-parametric coordinates.

mtllib part_gear_HandGaurd.mtl
g default
v 167.406566 40.531425 0.000000
v 167.406566 40.531425 4.419446
v 167.406566 40.531425 -4.419446
v 161.435145 33.396744 0.000000
v 161.435145 33.396744 4.419446
v 171.959201 37.352173 9.250001
v 175.171725 35.108749 9.250001
v 161.435145 33.396744 -4.419446
v 154.315532 27.407379 0.000000
v 154.315532 27.407379 4.419446
v 165.366534 29.475235 9.250001
v 168.140689 26.708050 9.250001
v 170.531619 38.349106 -9.250001
v 154.315532 27.407379 -4.419446
v 146.264030 22.745316 0.000000
v 146.264030 22.745316 4.419446
v 157.506236 22.862766 9.250001
v 159.757724 19.655891 9.250001
v 171.632991 23.785152 9.250001
v 178.664004 32.185856 9.250001
v 180.217227 31.585304 4.419446
v 175.171725 35.108749 -9.250001
v 164.133754 30.704918 -9.250001
v 146.264030 22.745316 -4.419446
v 137.525294 19.552212 0.000000
v 137.525294 19.552212 4.419446
v 148.617091 17.715687 9.250001
v 150.277518 14.166569 9.250001
v 172.497714 22.361988 4.419446
v 184.051501 28.376190 4.419446
v 180.217227 31.585304 0.000000
v 168.140689 26.708050 -9.250001
v 156.505714 24.287842 -9.250001
v 137.525294 19.552212 -4.419446
v 128.364841 17.925076 0.000000
v 128.364841 17.925076 4.419446
v 138.969230 14.190384 9.250001
v 139.988116 10.406853 9.250001
v 152.559516 10.225510 9.250001
v 162.039722 15.714836 9.250001
v 163.293864 14.619267 4.419446
v 176.331988 19.152874 4.419446
v 184.051501 28.376190 0.000000
v 180.217227 31.585304 -4.419446
v 178.664004 32.185856 -9.250001
v 171.632991 23.785152 -9.250001
v 159.757724 19.655891 -9.250001
v 147.879230 19.292850 -9.250001
v 128.364841 17.925076 -4.419446
v 119.070289 17.835735 -0.004780
v 119.074424 17.837374 4.461467
v 128.855765 12.393974 9.250001
v 129.202174 8.490997 9.250001
v 152.885333 8.592411 4.419446
v 155.390788 4.265434 4.419446
v 165.799319 10.292290 4.419446
v 163.293864 14.619267 0.000000
v 172.497714 22.361988 0.000000
v 176.331988 19.152874 0.000000
v 184.051501 28.376190 -4.419446
v 172.497714 22.361988 -4.419446
v 150.277518 14.166569 -9.250001
v 138.516448 15.871716 -9.250001
v 119.070289 17.835735 -4.484003
v 119.129211 12.381729 9.250001
v 119.129211 9.999999 9.250001
v 119.129211 8.478311 9.250001
v 129.998618 4.007126 9.250001
v 140.784568 5.922981 9.250001
v 141.588370 4.464539 4.419446
v 155.390788 4.265434 0.000000
v 165.799319 10.292290 0.000000
v 163.293864 14.619267 -4.419446
v 176.331988 19.152874 -4.419446
v 162.039722 15.714836 -9.250001
v 152.559516 10.225510 -9.250001
v 139.988116 10.406853 -9.250001
v 128.701823 14.128387 -9.250001
v 119.129211 16.306286 5.822896
v 119.129211 13.888888 7.933879
v 119.129211 8.008175 8.879562
v 129.746245 2.361076 4.419446
v 142.462813 -0.458397 4.419446
v 141.588370 4.464539 0.000000
v 152.885333 8.592411 0.000000
v 165.799319 10.292290 -4.419446
v 155.390788 4.265434 -4.419446
v 152.885333 8.592411 -4.419446
v 129.202174 8.490997 -9.250001
v 119.129211 14.116331 -9.250001
v 119.129211 16.810253 -5.822894
v 119.129211 6.111111 7.384787
v 119.129211 4.128869 5.822896
v 119.129211 2.347708 4.419446
v 130.620685 -2.561859 4.419446
v 142.462813 -0.458397 0.000000
v 141.588370 4.464539 -4.419446
v 140.784568 5.922981 -9.250001
v 129.998618 4.007126 -9.250001
v 119.129211 8.478311 -9.250001
v 119.129211 9.999999 -9.250001
v 119.129211 13.888888 -9.250001
v 119.129211 2.347708 0.000001
v 119.129211 2.347708 0.000000
v 129.746245 2.361076 0.000000
v 130.620685 -2.561859 0.000000
v 142.462813 -0.458397 -4.419446
v 129.746245 2.361076 -4.419446
v 119.129211 8.008175 -8.879562
v 119.129211 2.347708 -4.419446
v 130.620685 -2.561859 -4.419446
v 119.129211 4.128866 -5.822894
v 119.129211 6.111111 -7.384787
v 119.129211 6.111111 5.822896
v 119.129211 6.111111 0.000001
v 119.129211 9.999999 5.822896
v 119.129211 6.111111 -5.822894
v 119.129211 9.999999 2.886752
v 119.129211 7.500000 4.330127
v 119.129211 7.500000 0.000001
v 119.129211 13.888888 5.822896
v 119.129211 7.500000 -4.330128
v 119.129211 9.999999 -2.886752
v 119.129211 9.999999 -5.822894
v 139.448421 7.500000 -4.330128
v 139.448421 7.500000 4.330127
v 119.129211 13.888888 0.641501
v 119.129211 14.999998 0.000001
v 119.129211 15.000000 0.000000
v 139.448421 15.000000 0.000000
v 119.129211 13.888888 -0.641501
v 119.129211 13.888888 -5.822894
v 139.448421 10.000000 0.000000
vt 0.888889 0.812500
vt 0.888889 0.750000
vt 0.888889 0.750000
vt 0.861111 0.812500
vt 0.861111 0.750000
vt 0.888889 0.625000
vt 0.888889 0.500000
vt 0.861111 0.750000
vt 0.833334 0.812500
vt 0.833334 0.750000
vt 0.861111 0.625000
vt 0.861111 0.500000
vt 0.888889 0.625000
vt 0.833334 0.750000
vt 0.805556 0.812500
vt 0.805556 0.750000
vt 0.833334 0.625000
vt 0.833334 0.500000
vt 0.583333 0.250000
vt 0.583333 0.125000
vt 0.583333 0.125000
vt 0.583333 0.250000
vt 0.888889 0.500000
vt 0.861111 0.625000
vt 0.805556 0.750000
vt 0.777778 0.812500
vt 0.777778 0.750000
vt 0.805556 0.625000
vt 0.805556 0.500000
vt 0.861111 0.375000
vt 0.611111 0.250000
vt 0.611111 0.250000
vt 0.611111 0.125000
vt 0.611111 0.125000
vt 0.888889 0.500000
vt 0.861111 0.500000
vt 0.888889 0.375000
vt 0.861111 0.500000
vt 0.833334 0.625000
vt 0.777778 0.750000
vt 0.750000 0.812500
vt 0.750000 0.750000
vt 0.777778 0.625000
vt 0.777778 0.500000
vt 0.416667 0.125000
vt 0.444445 0.125000
vt 0.444445 0.125000
vt 0.416667 0.125000
vt 0.833334 0.375000
vt 0.611111 0.125000
vt 0.611111 0.125000
vt 0.861111 0.375000
vt 0.652778 0.125000
vt 0.652778 0.125000
vt 0.666667 0.125000
vt 0.666667 0.125000
vt 0.583333 0.250000
vt 0.583333 0.250000
vt 0.583333 0.125000
vt 0.583333 0.125000
vt 0.833334 0.500000
vt 0.805556 0.625000
vt 0.750000 0.750000
vt 0.722222 0.810557
vt 0.722276 0.748167
vt 0.750000 0.625000
vt 0.750000 0.500000
vt 0.805556 0.375000
vt 0.472222 0.125000
vt 0.472222 0.125000
vt 0.472222 0.250000
vt 0.444445 0.250000
vt 0.833334 0.500000
vt 0.805556 0.500000
vt 0.805556 0.375000
vt 0.833334 0.375000
vt 0.833334 0.312500
vt 0.861111 0.312500
vt 0.638889 0.250000
vt 0.638889 0.187500
vt 0.638889 0.187500
vt 0.638889 0.250000
vt 0.861111 0.312500
vt 0.888889 0.312500
vt 0.666667 0.125000
vt 0.666667 0.125000
vt 0.611111 0.125000
vt 0.611111 0.250000
vt 0.611111 0.250000
vt 0.888889 0.500000
vt 0.888889 0.375000
vt 0.861111 0.500000
vt 0.611111 0.125000
vt 0.861111 0.375000
vt 0.805556 0.500000
vt 0.777778 0.625000
vt 0.722222 0.748243
vt 0.723697 0.625000
vt 0.724177 0.548729
vt 0.724458 0.500000
vt 0.277778 0.125000
vt 0.277778 0.250000
vt 0.277778 0.250000
vt 0.277778 0.125000
vt 0.777778 0.375000
vt 0.472222 0.250000
vt 0.444445 0.250000
vt 0.805556 0.312500
vt 0.833334 0.312500
vt 0.500000 0.187500
vt 0.500000 0.187500
vt 0.500000 0.250000
vt 0.500000 0.250000
vt 0.833334 0.375000
vt 0.638889 0.250000
vt 0.638889 0.250000
vt 0.861111 0.375000
vt 0.611111 0.125000
vt 0.611111 0.125000
vt 0.416667 0.125000
vt 0.416667 0.125000
vt 0.444445 0.125000
vt 0.444445 0.125000
vt 0.777778 0.500000
vt 0.750000 0.625000
vt 0.722782 0.713683
vt 0.723345 0.659057
vt 0.724353 0.490414
vt 0.750000 0.375000
vt 0.333333 0.125000
vt 0.333333 0.125000
vt 0.305556 0.125000
vt 0.305556 0.250000
vt 0.305556 0.125000
vt 0.305556 0.250000
vt 0.777778 0.500000
vt 0.750000 0.500000
vt 0.777778 0.375000
vt 0.777778 0.312500
vt 0.805556 0.312500
vt 0.472222 0.125000
vt 0.486111 0.125000
vt 0.486111 0.125000
vt 0.472222 0.125000
vt 0.833334 0.375000
vt 0.805556 0.375000
vt 0.500000 0.250000
vt 0.500000 0.250000
vt 0.472222 0.250000
vt 0.472222 0.125000
vt 0.472222 0.125000
vt 0.833334 0.500000
vt 0.805556 0.500000
vt 0.444445 0.250000
vt 0.805556 0.375000
vt 0.750000 0.500000
vt 0.723325 0.625000
vt 0.722678 0.713683
vt 0.722445 0.745534
vt 0.724730 0.451734
vt 0.725125 0.411317
vt 0.725480 0.375000
vt 0.305556 0.125000
vt 0.305556 0.125000
vt 0.750000 0.375000
vt 0.361111 0.187500
vt 0.361111 0.187500
vt 0.361111 0.125000
vt 0.361111 0.125000
vt 0.777778 0.375000
vt 0.472222 0.125000
vt 0.472222 0.125000
vt 0.472222 0.250000
vt 0.444445 0.250000
vt 0.277778 0.125000
vt 0.277778 0.125000
vt 0.277778 0.250000
vt 0.277778 0.250000
vt 0.724458 0.500000
vt 0.724190 0.533737
vt 0.723360 0.619957
vt 0.725480 0.312500
vt 0.725480 0.312500
vt 0.750000 0.312500
vt 0.333333 0.125000
vt 0.333333 0.187500
vt 0.333333 0.187500
vt 0.333333 0.125000
vt 0.750000 0.312500
vt 0.777778 0.312500
vt 0.361111 0.125000
vt 0.361111 0.125000
vt 0.305556 0.125000
vt 0.333333 0.125000
vt 0.333333 0.125000
vt 0.777778 0.500000
vt 0.777778 0.375000
vt 0.750000 0.500000
vt 0.305556 0.250000
vt 0.305556 0.250000
vt 0.305556 0.125000
vt 0.750000 0.375000
vt 0.724353 0.490414
vt 0.725480 0.375000
vt 0.333333 0.125000
vt 0.333333 0.125000
vt 0.750000 0.375000
vt 0.305556 0.125000
vt 0.305556 0.125000
vt 0.725125 0.411317
vt 0.724730 0.451734
vt 0.708333 0.062095
vt 0.697157 0.083333
vt 0.708333 0.083333
vt 0.750000 0.043011
vt 0.718376 0.043011
vt 0.750000 0.083333
vt 0.686461 0.103659
vt 0.683810 0.108696
vt 0.683810 0.125000
vt 0.708333 0.125000
vt 0.791667 0.062095
vt 0.781624 0.043011
vt 0.750000 0.043011
vt 0.791667 0.083333
vt 0.729343 0.125000
vt 0.719015 0.098214
vt 0.750000 0.098214
vt 0.683810 0.150519
vt 0.693228 0.166667
vt 0.708333 0.166667
vt 0.802843 0.083333
vt 0.780985 0.098214
vt 0.770657 0.125000
vt 0.791667 0.125000
vt 0.375000 0.312500
vt 0.375000 0.497879
vt 0.416667 0.497879
vt 0.458333 0.497879
vt 0.458333 0.312500
vt 0.486111 0.497879
vt 0.529321 0.497879
vt 0.541667 0.497879
vt 0.541667 0.497879
vt 0.541667 0.312500
vt 0.745410 0.166667
vt 0.708333 0.192567
vt 0.816190 0.125000
vt 0.816190 0.108696
vt 0.813539 0.103659
vt 0.754590 0.166667
vt 0.791667 0.166667
vt 0.554012 0.497879
vt 0.597222 0.497879
vt 0.625000 0.497879
vt 0.625000 0.312500
vt 0.421875 0.291566
vt 0.500000 0.150000
vt 0.421875 0.020934
vt 0.656250 0.156250
vt 0.782267 0.209056
vt 0.791667 0.197967
vt 0.750000 0.178571
vt 0.750000 0.178571
vt 0.750045 0.209056
vt 0.717917 0.208976
vt 0.816190 0.166667
vt 0.816190 0.169104
vn -0.766853 0.641823 0.000000
vn -0.707997 0.706216 0.000000
vn -0.599962 0.598452 0.530943
vn -0.650534 0.544469 0.529490
vn -0.706016 0.590905 -0.390349
vn -0.651450 0.649811 -0.391611
vn -0.574608 0.818429 0.000000
vn -0.486927 0.693543 0.530943
vn -0.504403 0.422163 0.753231
vn -0.464682 0.463513 0.754471
vn -0.000000 0.000000 1.000000
vn -0.000000 0.000000 1.000000
vn -0.000000 0.000000 1.000000
vn 0.000000 0.000000 1.000000
vn -0.602889 0.504592 -0.617991
vn -0.555805 0.554407 -0.619446
vn -0.528714 0.753062 -0.391611
vn -0.423759 0.905775 0.000000
vn -0.359097 0.767560 0.530943
vn -0.377134 0.537162 0.754471
vn -0.000000 0.000000 1.000000
vn -0.000000 0.000000 1.000000
vn 0.000000 0.000000 1.000000
vn 0.000000 0.000000 1.000000
vn -0.451090 0.642499 -0.619446
vn -0.389914 0.833432 -0.391611
vn -0.260035 0.965599 0.000000
vn -0.220356 0.818256 0.530943
vn -0.278127 0.594490 0.754471
vn -0.000000 0.000000 1.000000
vn -0.000000 0.000000 1.000000
vn 0.543655 -0.646249 0.535539
vn 0.398420 -0.473606 0.785467
vn 0.398420 -0.473606 0.785467
vn 0.543655 -0.646249 0.535538
vn 0.640299 0.765033 0.068859
vn 0.637902 0.762169 0.110357
vn 0.637902 0.762169 0.110357
vn 0.641473 0.766436 0.032994
vn -0.637902 -0.762169 0.110357
vn -0.637902 -0.762169 0.110357
vn -0.640299 -0.765033 0.068859
vn -0.641473 -0.766436 0.032994
vn 0.633853 -0.530508 0.562843
vn 0.453963 -0.379947 0.805952
vn 0.453963 -0.379947 0.805952
vn 0.633853 -0.530507 0.562843
vn 0.000000 0.000000 -1.000000
vn 0.000000 0.000000 -1.000000
vn 0.000000 0.000000 -1.000000
vn 0.000000 0.000000 -1.000000
vn -0.332667 0.711069 -0.619446
vn -0.239266 0.888478 -0.391611
vn -0.092343 0.995727 -0.000045
vn -0.077589 0.846778 0.526257
vn -0.170670 0.633754 0.754472
vn -0.000000 0.000000 1.000000
vn -0.000000 0.000000 1.000000
vn 0.000000 0.000000 1.000000
vn 0.000000 0.000000 1.000000
vn 0.641822 0.766853 0.000000
vn 0.641822 0.766853 0.000000
vn 0.000000 0.000000 -1.000000
vn 0.000000 0.000000 -1.000000
vn -0.000000 0.000000 -1.000000
vn -0.000000 0.000000 -1.000000
vn -0.204138 0.758033 -0.619446
vn -0.083997 0.918066 -0.387426
vn -0.009569 0.999954 -0.000090
vn -0.004659 0.858494 0.512802
vn -0.059213 0.654118 0.754071
vn 0.000000 0.000000 1.000000
vn 0.000000 0.000000 1.000000
vn 0.289839 -0.793216 0.535539
vn 0.212409 -0.581311 0.785468
vn 0.212409 -0.581311 0.785468
vn 0.289839 -0.793216 0.535539
vn 0.863340 0.499902 0.068857
vn 0.860109 0.498031 0.110354
vn 0.860109 0.498031 0.110354
vn 0.864923 0.500818 0.032994
vn -0.860108 -0.498031 0.110359
vn -0.860108 -0.498031 0.110359
vn -0.863340 -0.499902 0.068860
vn -0.864923 -0.500818 0.032995
vn 0.296636 -0.512298 0.805952
vn 0.296636 -0.512298 0.805952
vn 0.414183 -0.715305 0.562843
vn 0.414183 -0.715304 0.562843
vn 0.643752 -0.765235 0.000000
vn 0.643752 -0.765235 0.000000
vn -0.641822 -0.766853 0.000000
vn -0.641822 -0.766853 0.000000
vn 0.766853 -0.641823 0.000000
vn 0.766853 -0.641823 0.000000
vn 0.641473 0.766436 -0.032995
vn 0.640299 0.765033 -0.068859
vn 0.637902 0.762169 -0.110357
vn 0.637902 0.762169 -0.110357
vn 0.453963 -0.379947 -0.805952
vn 0.453963 -0.379947 -0.805952
vn 0.633853 -0.530507 -0.562843
vn 0.633853 -0.530507 -0.562843
vn -0.640299 -0.765033 -0.068859
vn -0.637902 -0.762169 -0.110357
vn -0.637902 -0.762169 -0.110357
vn -0.641473 -0.766436 -0.032994
vn 0.398420 -0.473606 -0.785467
vn 0.398420 -0.473606 -0.785467
vn 0.543655 -0.646249 -0.535538
vn 0.543655 -0.646249 -0.535538
vn -0.000000 0.000000 -1.000000
vn -0.000000 0.000000 -1.000000
vn -0.070641 0.782381 -0.618780
vn -0.005086 0.926264 -0.376841
vn -0.001112 0.658676 0.752426
vn -0.001112 0.658676 0.752426
vn -0.001112 0.658676 0.752426
vn 0.000000 0.000000 1.000000
vn 0.000000 0.000000 1.000000
vn 0.000000 0.000000 1.000000
vn 0.000000 0.000000 1.000000
vn 0.000000 0.000000 1.000000
vn 0.501090 -0.865395 0.000000
vn 0.501090 -0.865395 0.000000
vn 0.865395 0.501091 0.000000
vn 0.865395 0.501091 0.000000
vn 0.000000 0.000000 -1.000000
vn 0.000000 0.000000 -1.000000
vn -0.000000 0.000000 -1.000000
vn -0.000000 0.000000 -1.000000
vn -0.001320 0.787235 -0.616651
vn -0.001320 0.787235 -0.616651
vn 0.000779 -0.618902 0.785468
vn 0.000779 -0.618902 0.785468
vn 0.000779 -0.618902 0.785468
vn 0.000779 -0.618902 0.785468
vn 0.982251 0.174474 0.068858
vn 0.978575 0.173821 0.110354
vn 0.978575 0.173821 0.110354
vn 0.984052 0.174794 0.032994
vn -0.978575 -0.173819 0.110356
vn -0.978575 -0.173819 0.110356
vn -0.982252 -0.174472 0.068858
vn -0.984052 -0.174793 0.032994
vn 0.144556 -0.813826 0.562842
vn 0.103530 -0.582859 0.805951
vn 0.103530 -0.582859 0.805951
vn 0.144556 -0.813826 0.562842
vn 0.343203 -0.939261 0.000000
vn 0.343203 -0.939261 0.000000
vn -0.865395 -0.501091 0.000000
vn -0.865395 -0.501091 0.000000
vn 0.414183 -0.715304 -0.562843
vn 0.414183 -0.715305 -0.562843
vn 0.864923 0.500818 -0.032994
vn 0.863340 0.499902 -0.068857
vn 0.860109 0.498031 -0.110354
vn 0.860109 0.498031 -0.110354
vn 0.296636 -0.512298 -0.805951
vn 0.296636 -0.512298 -0.805951
vn -0.863340 -0.499902 -0.068860
vn -0.860108 -0.498031 -0.110359
vn -0.860108 -0.498031 -0.110359
vn -0.864923 -0.500818 -0.032995
vn 0.212409 -0.581311 -0.785468
vn 0.212409 -0.581311 -0.785468
vn 0.289839 -0.793216 -0.535539
vn 0.289839 -0.793216 -0.535539
vn -0.000000 0.000000 -1.000000
vn -0.000000 0.000000 -1.000000
vn 0.000779 -0.618903 0.785468
vn 0.000779 -0.618903 0.785468
vn 0.000779 -0.618903 0.785468
vn 0.984588 0.174889 0.000000
vn 0.984588 0.174889 0.000000
vn 0.000000 0.000000 -1.000000
vn 0.000000 0.000000 -1.000000
vn 0.000000 0.000000 -1.000000
vn 0.000000 0.000000 -1.000000
vn 0.000000 0.000000 -1.000000
vn 0.000000 0.000000 -1.000000
vn 0.001259 -0.999999 0.000000
vn 0.001259 -0.999999 0.000000
vn 0.001259 -0.999999 0.000000
vn 0.001259 -0.999999 0.000000
vn 0.001259 -0.999999 0.000000
vn -0.984588 -0.174888 0.000000
vn -0.984588 -0.174888 0.000000
vn 0.174888 -0.984588 0.000000
vn 0.174888 -0.984588 0.000000
vn 0.984052 0.174794 -0.032994
vn 0.982251 0.174474 -0.068858
vn 0.978575 0.173821 -0.110355
vn 0.978575 0.173821 -0.110355
vn 0.103530 -0.582859 -0.805951
vn 0.103530 -0.582859 -0.805951
vn 0.144556 -0.813826 -0.562842
vn 0.144556 -0.813826 -0.562842
vn -0.982252 -0.174472 -0.068858
vn -0.978575 -0.173819 -0.110356
vn -0.978575 -0.173819 -0.110356
vn -0.984052 -0.174793 -0.032994
vn 0.000779 -0.618902 -0.785468
vn 0.000779 -0.618902 -0.785468
vn 0.000779 -0.618902 -0.785468
vn 0.000779 -0.618902 -0.785468
vn 0.001259 -0.999999 0.000000
vn 0.001259 -0.999999 0.000000
vn 0.000779 -0.618903 -0.785467
vn 0.000779 -0.618903 -0.785467
vn 0.000779 -0.618903 -0.785467
vn -1.000000 0.000000 0.000000
vn -1.000000 0.000000 0.000000
vn -1.000000 -0.000000 0.000000
vn -1.000000 -0.000000 0.000000
vn -1.000000 0.000000 0.000000
vn -1.000000 -0.000000 0.000000
vn -1.000000 0.000000 0.000000
vn -1.000000 0.000000 0.000000
vn -1.000000 0.000000 0.000000
vn -1.000000 -0.000000 0.000000
vn -1.000000 -0.000001 0.000000
vn -1.000000 -0.000001 0.000000
vn -1.000000 -0.000001 0.000000
vn -1.000000 0.000000 0.000000
vn -1.000000 -0.000000 0.000000
vn -1.000000 -0.000001 0.000000
vn -1.000000 0.000000 0.000000
vn -1.000000 0.000000 0.000000
vn -1.000000 0.000000 0.000000
vn -0.999984 -0.005569 0.000798
vn -1.000000 0.000000 0.000000
vn -1.000000 0.000001 0.000000
vn -1.000000 -0.000000 0.000000
vn -1.000000 0.000000 0.000000
vn 0.000000 1.000000 0.000000
vn 0.000000 1.000000 0.000000
vn 0.000000 1.000000 0.000000
vn 0.000000 1.000000 0.000000
vn 0.000000 1.000000 0.000000
vn 0.000000 -0.500000 -0.866025
vn 0.000000 -0.500000 -0.866025
vn 0.000000 -0.500000 -0.866025
vn 0.000000 -0.500000 -0.866025
vn 0.000000 -0.500000 -0.866026
vn 0.000000 -0.500000 -0.866025
vn 0.000000 -0.500000 -0.866025
vn -0.999950 -0.009871 0.001414
vn -0.999914 -0.013020 0.001865
vn -1.000000 0.000000 0.000000
vn -1.000000 0.000000 0.000000
vn -1.000000 0.000000 0.000000
vn -0.999947 -0.010175 -0.001788
vn -0.999985 -0.005377 -0.000945
vn 0.000000 -0.500000 0.866025
vn 0.000000 -0.500000 0.866025
vn 0.000000 -0.500000 0.866025
vn 0.000000 -0.500000 0.866025
vn 0.000000 -0.500000 0.866025
vn 0.000000 -0.500000 0.866025
vn -1.000000 0.000000 0.000000
vn -1.000000 0.000000 0.000000
vn -1.000000 0.000000 0.000000
vn -1.000000 0.000000 0.000000
vn -0.999901 -0.013836 -0.002431
vn -0.999918 -0.012578 -0.002210
vn -0.999901 -0.013836 -0.002431
vn -0.999908 -0.013532 0.001268
vn -0.999907 -0.013658 -0.000269
vn -0.999907 -0.013477 0.001930
vn -1.000000 0.000000 0.000000
vn -1.000000 0.000000 0.000000
vn 0.572545 0.819873 0.000000
vn 0.572545 0.819873 0.000000
vn 0.572545 0.819873 0.000000
vn 0.572545 0.819873 0.000000
vn 0.572545 0.819873 0.000000
vn 0.572545 0.819873 0.000000
vn 0.572545 0.819873 0.000000
vn 0.572545 0.819873 0.000000
vn 0.572545 0.819873 0.000000
vn 0.572545 0.819873 0.000000
s 1
g pPipe29
usemtl initialShadingGroup
f 1/1/1 4/4/2 5/5/3 2/2/4
f 1/1/1 3/3/5 8/8/6 4/4/2
f 4/4/2 9/9/7 10/10/8 5/5/3
f 6/6/9 2/2/4 5/5/3 11/11/10
s 2
f 6/6/11 11/11/12 12/12/13 7/7/14
s 1
f 8/8/6 3/3/5 13/13/15 23/24/16
f 4/4/2 8/8/6 14/14/17 9/9/7
f 9/9/7 15/15/18 16/16/19 10/10/8
f 11/11/10 5/5/3 10/10/8 17/17/20
s 2
f 11/11/12 17/17/21 18/18/22 12/12/13
f 7/19/14 12/20/13 19/21/23 20/22/24
s 1
f 14/14/17 8/8/6 23/24/16 33/39/25
f 9/9/7 14/14/17 24/25/26 15/15/18
f 15/15/18 25/26/27 26/27/28 16/16/19
f 17/17/20 10/10/8 16/16/19 27/28/29
s 2
f 17/17/21 27/28/30 28/29/31 18/18/22
s 3
f 29/30/32 12/12/33 18/18/34 41/49/35
s 4
f 21/33/36 7/31/37 20/32/38 30/50/39
s 5
f 19/21/40 12/20/41 29/34/42 42/51/43
s 6
f 30/37/44 20/35/45 19/36/46 42/52/47
s 7
f 13/13/48 22/23/49 32/38/50 23/24/51
s 1
f 24/25/26 14/14/17 33/39/25 48/62/52
f 15/15/18 24/25/26 34/40/53 25/26/27
f 25/26/27 35/41/54 36/42/55 26/27/28
f 27/28/29 16/16/19 26/27/28 37/43/56
s 2
f 27/28/30 37/43/57 38/44/58 28/29/31
f 18/45/22 28/46/31 39/47/59 40/48/60
s 4
f 43/53/61 31/54/62 21/55/36 30/56/39
s 7
f 22/57/49 45/58/63 46/59/64 32/60/50
f 23/24/51 32/38/50 47/61/65 33/39/66
s 1
f 34/40/53 24/25/26 48/62/52 63/96/67
f 25/26/27 34/40/53 49/63/68 35/41/54
f 35/41/54 50/64/69 51/65/70 36/42/55
f 37/43/56 26/27/28 36/42/55 52/66/71
s 2
f 37/43/57 52/66/72 53/67/73 38/44/58
s 8
f 54/68/74 28/29/75 38/44/76 70/105/77
s 9
f 41/71/78 18/69/79 40/70/80 56/106/81
s 10
f 39/47/82 28/46/83 54/72/84 55/107/85
s 11
f 40/73/86 39/74/87 55/75/88 56/76/89
s 3
f 29/30/32 41/49/35 57/77/90 58/78/91
s 5
f 29/79/42 58/80/92 59/81/93 42/82/43
s 6
f 30/37/44 42/52/47 59/83/94 43/84/95
s 4
f 43/53/61 60/85/96 44/86/97 31/54/62
f 45/88/98 22/89/99 44/87/97 60/118/96
s 6
f 46/92/100 45/90/101 60/91/102 74/117/103
s 5
f 61/93/104 32/60/105 46/59/106 74/119/107
s 3
f 47/61/108 32/38/109 61/94/110 73/114/111
s 7
f 33/39/66 47/61/65 62/95/112 48/62/113
s 1
f 49/63/68 34/40/53 63/96/67 78/125/114
f 35/41/54 49/63/68 64/97/115 50/64/69
f 52/66/71 36/42/55 51/65/70 79/126/116 80/127/117 65/98/118
s 2
f 52/66/72 65/98/119 66/99/120 67/100/121 53/67/73
f 38/101/58 53/102/73 68/103/122 69/104/123
s 11
f 56/76/89 55/75/88 71/108/124 72/109/125
s 9
f 72/110/126 57/111/127 41/112/78 56/113/81
s 3
f 61/94/110 58/78/91 57/77/90 73/114/111
s 5
f 61/115/104 74/116/107 59/81/93 58/80/92
s 6
f 60/91/102 43/84/95 59/83/94 74/117/103
s 7
f 47/120/65 75/121/128 76/122/129 62/123/112
f 48/62/113 62/95/112 77/124/130 63/96/131
s 1
f 64/97/115 49/63/68 78/125/114 90/157/132 91/158/133
s 12
f 81/159/134 82/128/135 53/129/136 67/67/137
s 13
f 70/100/138 38/132/139 69/130/140 83/131/141
s 14
f 68/163/142 53/135/143 82/133/144 95/134/145
s 15
f 83/164/146 69/138/147 68/136/148 95/137/149
s 8
f 54/165/74 70/68/77 84/105/150 85/139/151
s 10
f 54/140/84 85/141/152 71/142/153 55/143/85
s 11
f 86/144/154 72/145/125 71/109/124 87/108/155
s 9
f 72/146/126 86/110/156 73/147/157 57/148/127
f 75/111/158 47/150/159 73/151/157 86/149/156
s 11
f 75/173/160 86/152/154 87/145/155 76/146/161
s 10
f 88/153/162 62/154/163 76/123/164 87/122/165
s 8
f 77/174/166 62/124/167 88/95/168 97/155/169
s 7
f 63/170/131 77/96/130 89/124/170 78/156/171
s 12
f 82/125/135 81/129/134 92/128/172 93/160/173 94/161/174
s 13
f 96/162/175 84/166/176 70/167/138 83/168/141
s 8
f 88/169/168 85/155/151 84/140/150 97/139/169
s 10
f 88/170/162 87/171/165 71/172/153 85/143/152
s 7
f 77/142/130 98/175/177 99/176/178 89/177/170
f 78/178/171 89/125/170 100/156/179 101/179/180 102/180/181 90/181/182
s 16
f 82/157/183 94/129/184 103/162/185 104/182/186 105/183/187
s 14
f 82/184/144 105/185/188 106/186/189 95/187/145
s 15
f 83/188/146 95/138/149 106/165/190 96/189/191
s 13
f 96/190/175 107/166/192 97/191/193 84/192/176
f 98/167/194 77/194/195 97/195/193 107/193/192
s 15
f 99/208/196 98/198/197 107/196/198 111/197/199
s 14
f 108/207/200 89/201/201 99/199/202 111/200/203
s 17
f 100/209/204 89/179/205 108/156/206 109/202/207
s 16
f 110/203/208 108/204/209 105/202/187 104/184/186
s 14
f 108/183/200 111/205/203 106/206/189 105/187/188
s 15
f 107/186/198 96/197/191 106/190/190 111/189/199
s 17
f 109/207/207 108/203/206 110/202/210 112/204/211 113/210/212
s 18
f 93/211/213 92/212/214 114/213/215
f 103/214/216 94/215/217 93/216/213 114/212/215 115/214/218
f 92/217/214 81/213/219 67/218/220 66/219/221 116/220/222 114/221/215
f 112/214/223 110/222/224 104/223/225 103/224/216 115/215/218 117/217/226
f 114/225/215 116/214/222 118/221/227 119/226/228 120/227/229 115/228/218
f 66/217/221 65/220/230 80/229/231 121/230/232 116/231/222
f 113/221/233 112/232/223 117/222/226
f 115/225/218 120/217/229 122/228/234 123/233/235 124/234/236 117/235/226
s off
f 125/225/237 122/236/238 120/237/239 119/238/240 126/239/241
f 126/240/242 119/240/243 118/239/244 127/241/245 128/242/246 129/243/247 130/244/248
s 18
f 127/245/249 118/246/227 116/226/222 121/221/232
f 80/231/231 79/230/250 121/247/232
f 117/231/226 124/225/236 101/235/251 100/248/252 109/249/253 113/250/233
f 123/232/235 131/234/254 132/251/255 124/252/236
s off
f 130/235/256 129/245/257 131/244/258 123/253/259 122/254/260 125/255/261
s 19
f 126/256/262 133/257/263 125/258/264
f 130/259/265 133/260/263 126/258/262
s 18
f 64/257/266 91/261/267 132/262/255 131/252/254 129/251/268 128/263/269 50/264/270
f 79/265/250 51/247/271 50/266/270 128/265/269 127/264/249 121/246/232
f 102/231/272 101/267/251 124/248/236 132/235/255
s 19
f 125/252/264 133/259/263 130/258/265
s 18
f 132/260/255 91/252/267 90/262/273 102/268/272
s off
f 2/2/274 6/6/275 7/31/276 21/55/277 31/54/278 44/87/279 22/23/280 13/13/281 3/3/282 1/1/283
